<?xml version="1.0" encoding="utf-8"?>
<!-- Generator: Adobe Illustrator 21.1.0, SVG Export Plug-In . SVG Version: 6.00 Build 0)  -->
<svg version="1.1" id="Layer_1" xmlns="http://www.w3.org/2000/svg" xmlns:xlink="http://www.w3.org/1999/xlink" x="0px" y="0px"
	 viewBox="0 0 150 24.3" style="enable-background:new 0 0 150 24.3;" xml:space="preserve">
<style type="text/css">
	.st0{fill:#19293C;}
	.st1{fill:#FFFFFF;}
</style>
<g>
	<path class="st1" d="M19.4,15.8c0,0.9,0.2,1.7,0.5,2.4c0.3,0.7,0.8,1.4,1.3,2c0.6,0.6,1.2,1,1.9,1.3s1.5,0.5,2.4,0.5
		c0.8,0,1.6-0.2,2.4-0.5c0.7-0.3,1.4-0.8,2-1.3c0.6-0.6,1-1.2,1.3-2c0.3-0.8,0.5-1.6,0.5-2.5c0-0.9-0.2-1.7-0.5-2.4
		c-0.3-0.8-0.8-1.4-1.3-2c-0.6-0.6-1.2-1-2-1.3c-0.7-0.3-1.5-0.5-2.4-0.5c-0.8,0-1.6,0.2-2.4,0.5c-0.7,0.3-1.4,0.8-1.9,1.4
		c-0.6,0.6-1,1.2-1.3,2C19.6,14.1,19.4,14.9,19.4,15.8 M25.5,24.3c-1.3,0-2.4-0.2-3.5-0.7c-1-0.5-1.9-1.1-2.7-1.9S18.1,20,17.7,19
		c-0.4-1-0.6-2.1-0.6-3.3c0-1.2,0.2-2.3,0.6-3.3c0.4-1,1-1.9,1.7-2.7c0.7-0.8,1.6-1.4,2.7-1.9c1-0.5,2.2-0.7,3.4-0.7
		c1.2,0,2.4,0.2,3.5,0.7c1.1,0.5,2,1.1,2.7,1.9c0.7,0.8,1.3,1.7,1.7,2.7c0.4,1,0.6,2.1,0.6,3.3c0,1.1-0.2,2.2-0.6,3.3
		c-0.4,1-1,1.9-1.7,2.7c-0.8,0.8-1.6,1.4-2.7,1.9C28,24,26.8,24.3,25.5,24.3"/>
	<path class="st1" d="M7.2,24.3c-1.3,0-2.6-0.2-3.9-0.6c-1.3-0.4-2.4-1-3.3-1.8L1.2,20c1,0.7,1.9,1.3,2.9,1.7c1,0.4,2,0.6,3,0.6
		c1.2,0,2.1-0.2,2.8-0.7c0.7-0.5,1.1-1.1,1.1-2c0-0.4-0.1-0.7-0.3-1c-0.2-0.3-0.5-0.5-0.8-0.7c-0.4-0.2-0.9-0.4-1.4-0.6
		s-1.3-0.3-2-0.5c-1-0.3-1.8-0.5-2.5-0.7c-0.7-0.2-1.3-0.5-1.8-0.8c-0.5-0.3-0.8-0.7-1-1.1c-0.2-0.4-0.3-1-0.3-1.6
		c0-0.8,0.2-1.6,0.5-2.2C1.6,9.4,2,8.9,2.6,8.5c0.6-0.4,1.2-0.8,2-1c0.8-0.2,1.6-0.3,2.5-0.3c1.2,0,2.4,0.2,3.5,0.6
		c1.1,0.4,2,0.9,2.7,1.6L12,11c-0.7-0.6-1.5-1.1-2.3-1.4C8.8,9.3,7.9,9.2,7,9.2c-1,0-1.9,0.2-2.6,0.6c-0.7,0.4-1.1,1.1-1.1,2.1
		c0,0.4,0.1,0.7,0.2,0.9c0.1,0.3,0.4,0.5,0.7,0.7C4.6,13.7,5,13.9,5.5,14c0.5,0.1,1.1,0.3,1.8,0.5c1.1,0.3,2,0.5,2.8,0.8
		c0.8,0.3,1.5,0.6,2,0.9c0.5,0.4,0.9,0.8,1.2,1.3c0.3,0.5,0.4,1.1,0.4,1.8c0,1.5-0.6,2.8-1.8,3.7C10.8,23.8,9.2,24.3,7.2,24.3"/>
	<path class="st1" d="M38.5,23.9V9.6h-2.2V7.5h2.2V7.1c0-2,0.4-3.6,1.3-4.8c0.9-1.2,2.1-1.7,3.7-1.7c0.6,0,1.3,0.1,1.9,0.3
		c0.6,0.2,1.2,0.4,1.7,0.7l-0.7,2.1c-0.3-0.2-0.7-0.4-1.1-0.5C45,3,44.5,2.9,44.1,2.9c-0.9,0-1.6,0.3-2.1,1c-0.5,0.7-0.7,1.7-0.7,3
		v0.4h4.4v2.2h-4.4v14.3H38.5z"/>
	<path class="st1" d="M58,23.1c-0.2,0.1-0.4,0.2-0.7,0.3c-0.3,0.1-0.6,0.2-0.9,0.3c-0.3,0.1-0.7,0.2-1.1,0.3
		c-0.4,0.1-0.8,0.1-1.3,0.1c-1,0-1.9-0.3-2.6-0.8c-0.7-0.6-1.1-1.4-1.1-2.6V9.6h-2.2V7.5h2.2V2h2.8v5.5h3.7v2.2h-3.7v10.2
		c0,0.6,0.2,1.1,0.6,1.3c0.4,0.3,0.8,0.4,1.3,0.4c0.5,0,1-0.1,1.5-0.3c0.4-0.2,0.8-0.3,0.9-0.4L58,23.1z"/>
	<polygon class="st1" points="72.4,7.4 68.2,20.5 64.1,7.4 59.7,7.4 65.8,23.9 70.3,23.9 76.4,7.4 	"/>
	<rect x="79.7" y="7.4" class="st1" width="4.2" height="16.6"/>
	<rect x="82.6" y="0" class="st1" width="1.9" height="2"/>
	<polygon class="st1" points="81.8,2.7 81.8,0.5 79.7,0.5 79.7,4.8 83.9,4.8 83.9,2.7 	"/>
	<path class="st1" d="M95,24.3c-1.4,0-2.7-0.2-4-0.7c-1.3-0.4-2.4-1.1-3.4-1.9l1.6-2.7c1,0.7,2,1.3,2.9,1.6c1,0.4,1.9,0.6,2.8,0.6
		c0.8,0,1.5-0.2,2-0.5c0.5-0.3,0.7-0.8,0.7-1.4c0-0.6-0.3-1-0.8-1.3c-0.6-0.3-1.5-0.6-2.8-0.9c-1.1-0.3-2-0.6-2.7-0.9
		c-0.8-0.3-1.4-0.6-1.8-0.9c-0.5-0.3-0.8-0.7-1-1.2c-0.2-0.5-0.3-1-0.3-1.6c0-0.8,0.2-1.6,0.5-2.3C88.9,9.6,89.4,9,90,8.5
		c0.6-0.5,1.3-0.8,2.1-1.1c0.8-0.3,1.6-0.4,2.6-0.4c1.2,0,2.4,0.2,3.5,0.5c1.1,0.4,2.1,0.9,3,1.7l-1.7,2.6c-0.8-0.6-1.6-1.1-2.4-1.4
		c-0.8-0.3-1.6-0.4-2.3-0.4c-0.7,0-1.3,0.1-1.8,0.4c-0.5,0.3-0.7,0.8-0.7,1.4c0,0.3,0.1,0.5,0.2,0.7c0.1,0.2,0.3,0.4,0.5,0.5
		c0.2,0.1,0.6,0.3,1,0.4c0.4,0.1,0.9,0.3,1.5,0.4c1.1,0.3,2.1,0.6,2.9,0.9c0.8,0.3,1.5,0.6,2,1c0.5,0.4,0.9,0.8,1.1,1.3
		c0.2,0.5,0.4,1.1,0.4,1.8c0,1.6-0.6,2.9-1.8,3.8C98.7,23.8,97.1,24.3,95,24.3"/>
	<rect x="105.5" y="0.6" class="st1" width="4.2" height="4.2"/>
	<rect x="105.5" y="7.4" class="st1" width="4.2" height="16.6"/>
	<path class="st1" d="M116.7,15.7c0,0.8,0.1,1.6,0.4,2.2c0.3,0.7,0.7,1.2,1.2,1.7c0.5,0.5,1.1,0.9,1.7,1.1c0.7,0.3,1.4,0.4,2.2,0.4
		s1.5-0.1,2.2-0.4c0.7-0.3,1.2-0.6,1.7-1.1c0.5-0.5,0.9-1.1,1.2-1.8c0.3-0.7,0.4-1.4,0.4-2.2c0-0.8-0.1-1.5-0.4-2.2
		c-0.3-0.7-0.7-1.3-1.2-1.8c-0.5-0.5-1.1-0.9-1.7-1.1c-0.7-0.3-1.4-0.4-2.2-0.4s-1.5,0.1-2.2,0.4c-0.7,0.3-1.2,0.7-1.7,1.2
		c-0.5,0.5-0.9,1.1-1.2,1.8C116.9,14.2,116.7,14.9,116.7,15.7 M122.2,24.2c-1.3,0-2.5-0.2-3.6-0.7c-1.1-0.5-1.9-1.1-2.7-1.9
		c-0.7-0.8-1.3-1.7-1.7-2.7c-0.4-1-0.6-2.1-0.6-3.2c0-1.2,0.2-2.2,0.6-3.3c0.4-1,1-1.9,1.7-2.7c0.7-0.8,1.6-1.4,2.7-1.9
		c1.1-0.5,2.2-0.7,3.6-0.7c1.3,0,2.5,0.2,3.5,0.7c1,0.5,1.9,1.1,2.7,1.9s1.3,1.7,1.7,2.7c0.4,1,0.6,2.1,0.6,3.3
		c0,1.1-0.2,2.2-0.6,3.2c-0.4,1-1,1.9-1.7,2.7c-0.7,0.8-1.6,1.4-2.7,1.9C124.7,24,123.5,24.2,122.2,24.2"/>
	<path class="st1" d="M150,23.9h-4.2c0,0,0-7.2,0-7.8c0-0.3,0-0.5,0-0.8c0-1.3,0.1-3-1-3.9c-0.9-0.9-2.3-0.7-3.4-0.1
		c-1.1,0.5-2,1.4-2.3,2.6c-0.2,0.8-0.3,1.6-0.2,2.3c0,0.8,0,1.6,0,2.3c0,1.7,0,3.4,0,5.1v0.1v0.1h-4.2V7.4h3.8v3.1
		c0.6-1.1,1.5-1.9,2.6-2.5c1.2-0.6,2.4-0.9,3.9-0.9c1,0,1.9,0.2,2.5,0.6c0.6,0.4,1.2,0.9,1.5,1.5c0.4,0.6,0.6,1.3,0.7,2.1
		c0.1,0.8,0.2,1.6,0.2,2.4V23.9z"/>
</g>
</svg>
